<svg width="34" height="51" viewBox="0 0 34 51" fill="none" xmlns="http://www.w3.org/2000/svg">
<mask id="mask0_1964_9772" style="mask-type:alpha" maskUnits="userSpaceOnUse" x="0" y="0" width="34" height="51">
<path d="M3.92314 50.0388L11.1656 39.5043H22.8344L30.0769 50.0388H34L26.7014 39.4235C29.1682 39.0012 31.0469 36.8592 31.0469 34.2729V8.74275C31.0469 5.85369 28.7047 3.5115 25.8156 3.5115H21.3903V1.75575C21.3903 0.785749 20.6045 0 19.6345 0C18.6645 0 17.8788 0.785749 17.8788 1.75575V3.5115H15.2451V1.75575C15.2451 0.785749 14.4594 0 13.4894 0C12.5194 0 11.7336 0.785749 11.7336 1.75575V3.5115H7.30823C4.41916 3.5115 2.07697 5.85369 2.07697 8.74275V34.2739C2.07697 37.142 4.38574 39.4675 7.24497 39.5017L0 50.0388H3.92314ZM23.75 34.935C22.2462 34.935 21.0268 33.7157 21.0268 32.2118C21.0268 30.708 22.2462 29.4887 23.75 29.4887C25.2539 29.4887 26.4732 30.708 26.4732 32.2118C26.4732 33.7157 25.2538 34.935 23.75 34.935ZM9.10005 24.5805H24.0239C24.5084 24.5805 24.9017 24.9738 24.9017 25.4583C24.9017 25.9428 24.5084 26.3361 24.0239 26.3361H9.10005C8.61551 26.3361 8.22223 25.9428 8.22223 25.4583C8.22223 24.9738 8.61542 24.5805 9.10005 24.5805ZM8.22213 22.8247C8.22213 22.3402 8.61542 21.9469 9.09996 21.9469H24.0238C24.5083 21.9469 24.9016 22.3402 24.9016 22.8247C24.9016 23.3093 24.5083 23.7025 24.0238 23.7025H9.10005C8.61542 23.7026 8.22213 23.3093 8.22213 22.8247ZM5.58856 9.63821C5.58856 8.19413 6.75961 7.02299 8.20377 7.02299H13.4895H19.6346H24.9203C26.3643 7.02299 27.5354 8.19404 27.5354 9.63821V15.8194C27.5354 17.2643 26.3643 18.4354 24.9203 18.4354H8.20368C6.75961 18.4354 5.58846 17.2643 5.58846 15.8202V9.63821H5.58856ZM5.99672 32.2118C5.99672 30.708 7.21605 29.4887 8.71989 29.4887C10.2237 29.4887 11.4431 30.708 11.4431 32.2118C11.4431 33.7157 10.2237 34.935 8.71989 34.935C7.21615 34.935 5.99672 33.7157 5.99672 32.2118Z" fill="white"/>
</mask>
<g mask="url(#mask0_1964_9772)">
<path d="M-29 -8H62V61H-29V-8Z" fill="#605DEC"/>
</g>
</svg>
