<svg width="182" height="50" viewBox="0 0 182 50" fill="none" xmlns="http://www.w3.org/2000/svg">
<g clip-path="url(#clip0_1858_22134)">
<path d="M3.92314 50.0388L11.1656 39.5043H22.8344L30.0769 50.0388H34L26.7014 39.4235C29.1682 39.0012 31.0469 36.8592 31.0469 34.2729V8.74275C31.0469 5.85369 28.7047 3.5115 25.8156 3.5115H21.3903V1.75575C21.3903 0.785749 20.6045 0 19.6345 0C18.6645 0 17.8788 0.785749 17.8788 1.75575V3.5115H15.2451V1.75575C15.2451 0.785749 14.4594 0 13.4894 0C12.5194 0 11.7336 0.785749 11.7336 1.75575V3.5115H7.30823C4.41916 3.5115 2.07697 5.85369 2.07697 8.74275V34.2739C2.07697 37.142 4.38574 39.4675 7.24497 39.5017L0 50.0388H3.92314ZM23.75 34.935C22.2462 34.935 21.0268 33.7157 21.0268 32.2118C21.0268 30.708 22.2462 29.4887 23.75 29.4887C25.2539 29.4887 26.4732 30.708 26.4732 32.2118C26.4732 33.7157 25.2538 34.935 23.75 34.935ZM9.10005 24.5805H24.0239C24.5084 24.5805 24.9017 24.9738 24.9017 25.4583C24.9017 25.9428 24.5084 26.3361 24.0239 26.3361H9.10005C8.61551 26.3361 8.22223 25.9428 8.22223 25.4583C8.22223 24.9738 8.61542 24.5805 9.10005 24.5805ZM8.22213 22.8247C8.22213 22.3402 8.61542 21.9469 9.09996 21.9469H24.0238C24.5083 21.9469 24.9016 22.3402 24.9016 22.8247C24.9016 23.3093 24.5083 23.7025 24.0238 23.7025H9.10005C8.61542 23.7026 8.22213 23.3093 8.22213 22.8247ZM5.58856 9.63821C5.58856 8.19413 6.75961 7.02299 8.20377 7.02299H13.4895H19.6346H24.9203C26.3643 7.02299 27.5354 8.19404 27.5354 9.63821V15.8194C27.5354 17.2643 26.3643 18.4354 24.9203 18.4354H8.20368C6.75961 18.4354 5.58846 17.2643 5.58846 15.8202V9.63821H5.58856ZM5.99672 32.2118C5.99672 30.708 7.21605 29.4887 8.71989 29.4887C10.2237 29.4887 11.4431 30.708 11.4431 32.2118C11.4431 33.7157 10.2237 34.935 8.71989 34.935C7.21615 34.935 5.99672 33.7157 5.99672 32.2118Z" fill="white"/>
<path d="M57.5234 33.4609C54.1719 33.4609 51.9883 31.2266 51.6328 27.4688H59.4531V24.7266H51.6836C52.2422 21.3242 54.4258 19.2422 57.5234 19.2422C60.1641 19.2422 61.9414 20.6133 62.7539 23.1523L65.6992 22.0859C64.5312 18.4297 61.5352 16.4492 57.5234 16.4492C52.0898 16.4492 48.3828 20.5117 48.3828 26.3516C48.3828 32.3438 51.9883 36.2539 57.5234 36.2539C61.5352 36.2539 64.5312 34.1211 65.6992 30.6172L62.7539 29.5508C61.9414 32.0898 60.1641 33.4609 57.5234 33.4609ZM67.8828 28.8398H76.7188V25.8945H67.8828V28.8398ZM96.4727 33.0547C95.8633 33.0547 95.5078 32.6484 95.5078 32.0898V24.6758H91.75L96.9297 16.7031H93.3242L88.4492 24.6758H84.5898V16.7031H81.3906V36H84.5898V27.5703H92.3086V32.6992C92.3086 34.832 93.4766 36 95.5078 36H97.082V33.0547H96.4727ZM110.691 28.1797C112.062 27.5703 112.875 26.4023 112.875 24.7266C112.875 21.9844 110.793 20.7656 107.441 20.7656H100.637V36H108C111.301 36 113.281 34.5781 113.281 31.8867C113.281 30.0078 112.367 28.7891 110.691 28.1797ZM103.531 23.1523H107.594C109.016 23.1523 109.879 23.8633 109.879 25.082C109.879 26.5039 109.117 27.0625 107.441 27.0625H103.531V23.1523ZM107.695 33.5625H103.531V29.3477H107.543C109.219 29.3477 110.234 30.1602 110.234 31.4805C110.234 32.75 109.27 33.5625 107.695 33.5625ZM127.449 20.7656L120.035 31.7344V20.7656H117.039V36H120.137L127.602 24.9297V36H130.598V20.7656H127.449ZM147.508 20.7656H133.492V23.5078H138.977V36H142.023V23.5078H147.508V20.7656ZM156.242 36.2539C160.812 36.2539 163.961 33.0547 163.961 28.3828C163.961 23.6094 160.914 20.5117 156.242 20.5117C151.672 20.5117 148.523 23.7109 148.523 28.3828C148.523 33.1562 151.57 36.2539 156.242 36.2539ZM156.242 33.6641C153.449 33.6641 151.621 31.582 151.621 28.3828C151.621 25.1836 153.449 23.1016 156.242 23.1016C159.035 23.1016 160.863 25.1836 160.863 28.3828C160.863 31.582 159.035 33.6641 156.242 33.6641ZM180.312 33.3086C179.855 33.3086 179.551 33.0039 179.551 32.5469V26.9609H176.758L180.617 20.7656H177.367L173.762 26.8086H170.664V15.6875H167.617V36H170.664V29.6523H176.555V33.1562C176.555 35.0352 177.621 36 179.5 36H180.871V33.3086H180.312Z" fill="white"/>
</g>
<defs>
<clipPath id="clip0_1858_22134">
<rect width="182" height="50" fill="white"/>
</clipPath>
</defs>
</svg>
